#Comment line ignore any data following # character 
#Hierarchical Translation and Rotation (.htr) file 
[Header]	
#Header keywords are followed by a single value 
FileType HTR		#Single word string
DataType HTRS		#Translation followed by rotation and scale data
FileVersion 1		#integer
NumSegments 64		#integer
NumFrames 3		#integer
DataFrameRate 30		#integer, data frame rate in this file
EulerRotationOrder ZYX
CalibrationUnits mm
RotationUnits Degrees
GlobalAxisofGravity Y
BoneLengthAxis Y
ScaleFactor 1.00
[SegmentNames&Hierarchy]
#CHILD	PARENT
Pinger_Root GLOBAL
Pelvis Pinger_Root
L_Hip Pelvis
R_Hip Pelvis
Rear_Leg01 Pelvis
Spine1 Pelvis
L_Leg01 L_Hip
L_Leg02 L_Leg01
L_Leg03 L_Leg02
L_Foot L_Leg03
L_Toe1_01 L_Foot
L_Toe2_01 L_Foot
L_Toe3_01 L_Foot
planeAlignerLeft L_Foot
L_Toe1_02 L_Toe1_01
L_Toe1_03 L_Toe1_02
L_Toe2_02 L_Toe2_01
L_Toe2_03 L_Toe2_02
L_Toe3_02 L_Toe3_01
L_Toe3_03 L_Toe3_02
planeLockWeightLeft planeAlignerLeft
R_Leg01 R_Hip
R_Leg02 R_Leg01
R_Leg03 R_Leg02
R_Foot R_Leg03
planeAlignerRight R_Foot
R_Toe1_01 R_Foot
R_Toe2_01 R_Foot
R_Toe3_01 R_Foot
planeLockWeightRight planeAlignerRight
R_Toe1_02 R_Toe1_01
R_Toe1_03 R_Toe1_02
R_Toe2_02 R_Toe2_01
R_Toe2_03 R_Toe2_02
R_Toe3_02 R_Toe3_01
R_Toe3_03 R_Toe3_02
Rear_Leg02 Rear_Leg01
Rear_Leg03 Rear_Leg02
Rear_Leg04 Rear_Leg03
Rear_Foot Rear_Leg04
planeAlignerCenter Rear_Foot
Rear_Toe1_01 Rear_Foot
Rear_Toe2_01 Rear_Foot
Rear_Toe3_01 Rear_Foot
planeLockWeightCenter planeAlignerCenter
Rear_Toe1_02 Rear_Toe1_01
Rear_Toe1_03 Rear_Toe1_02
Rear_Toe2_02 Rear_Toe2_01
Rear_Toe2_03 Rear_Toe2_02
Rear_Toe3_02 Rear_Toe3_01
Rear_Toe3_03 Rear_Toe3_02
Back_Bone Spine1
Head Spine1
Motor_Bone Back_Bone
Ping_Mechanism Back_Bone
BN_LookIK Head
bottomMouth Head
L_Mouth01 Head
L_mouthFront Head
mouthGun Head
R_Mouth01 Head
R_mouthFront Head
TopMouth Head
weapon_bone Head
[BasePosition]
#SegmentName Tx, Ty, Tz, Rx, Ry, Rz, BoneLength
Pinger_Root 0.000000 0.000000 0.000000 -90.000000 0.000000 0.000000 10.000000 
Pelvis 0.000000 0.000000 0.000000 0.000000 0.000000 0.000000 10.000000 
L_Hip 0.000000 0.000000 0.000000 0.000000 0.000000 0.000000 10.000000 
R_Hip 0.000000 0.000000 0.000000 0.000000 0.000000 0.000000 10.000000 
Rear_Leg01 0.000000 0.000000 0.000000 0.000000 0.000000 0.000000 10.000000 
Spine1 0.000000 0.000000 0.000000 0.000000 0.000000 0.000000 10.000000 
L_Leg01 0.000000 0.000000 0.000000 0.000000 0.000000 0.000000 10.000000 
L_Leg02 0.000000 0.000000 0.000000 0.000000 0.000000 0.000000 10.000000 
L_Leg03 0.000000 0.000000 0.000000 0.000000 0.000000 0.000000 10.000000 
L_Foot 0.000000 0.000000 0.000000 0.000000 0.000000 0.000000 10.000000 
L_Toe1_01 0.000000 0.000000 0.000000 0.000000 0.000000 0.000000 10.000000 
L_Toe2_01 0.000000 0.000000 0.000000 0.000000 0.000000 0.000000 10.000000 
L_Toe3_01 0.000000 0.000000 0.000000 0.000000 0.000000 0.000000 10.000000 
planeAlignerLeft 0.000000 0.000000 0.000000 0.000000 0.000000 0.000000 10.000000 
L_Toe1_02 0.000000 0.000000 0.000000 0.000000 0.000000 0.000000 10.000000 
L_Toe1_03 0.000000 0.000000 0.000000 0.000000 0.000000 0.000000 10.000000 
L_Toe2_02 0.000000 0.000000 0.000000 0.000000 0.000000 0.000000 10.000000 
L_Toe2_03 0.000000 0.000000 0.000000 0.000000 0.000000 0.000000 10.000000 
L_Toe3_02 0.000000 0.000000 0.000000 0.000000 0.000000 0.000000 10.000000 
L_Toe3_03 0.000000 0.000000 0.000000 0.000000 0.000000 0.000000 10.000000 
planeLockWeightLeft 0.000000 0.000000 0.000000 0.000000 0.000000 0.000000 10.000000 
R_Leg01 0.000000 0.000000 0.000000 0.000000 0.000000 0.000000 10.000000 
R_Leg02 0.000000 0.000000 0.000000 0.000000 0.000000 0.000000 10.000000 
R_Leg03 0.000000 0.000000 0.000000 0.000000 0.000000 0.000000 10.000000 
R_Foot 0.000000 0.000000 0.000000 0.000000 0.000000 0.000000 10.000000 
planeAlignerRight 0.000000 0.000000 0.000000 0.000000 0.000000 0.000000 10.000000 
R_Toe1_01 0.000000 0.000000 0.000000 0.000000 0.000000 0.000000 10.000000 
R_Toe2_01 0.000000 0.000000 0.000000 0.000000 0.000000 0.000000 10.000000 
R_Toe3_01 0.000000 0.000000 0.000000 0.000000 0.000000 0.000000 10.000000 
planeLockWeightRight 0.000000 0.000000 0.000000 0.000000 0.000000 0.000000 10.000000 
R_Toe1_02 0.000000 0.000000 0.000000 0.000000 0.000000 0.000000 10.000000 
R_Toe1_03 0.000000 0.000000 0.000000 0.000000 0.000000 0.000000 10.000000 
R_Toe2_02 0.000000 0.000000 0.000000 0.000000 0.000000 0.000000 10.000000 
R_Toe2_03 0.000000 0.000000 0.000000 0.000000 0.000000 0.000000 10.000000 
R_Toe3_02 0.000000 0.000000 0.000000 0.000000 0.000000 0.000000 10.000000 
R_Toe3_03 0.000000 0.000000 0.000000 0.000000 0.000000 0.000000 10.000000 
Rear_Leg02 0.000000 0.000000 0.000000 0.000000 0.000000 0.000000 10.000000 
Rear_Leg03 0.000000 0.000000 0.000000 0.000000 0.000000 0.000000 10.000000 
Rear_Leg04 0.000000 0.000000 0.000000 0.000000 0.000000 0.000000 10.000000 
Rear_Foot 0.000000 0.000000 0.000000 0.000000 0.000000 0.000000 10.000000 
planeAlignerCenter 0.000000 0.000000 0.000000 0.000000 0.000000 0.000000 10.000000 
Rear_Toe1_01 0.000000 0.000000 0.000000 0.000000 0.000000 0.000000 10.000000 
Rear_Toe2_01 0.000000 0.000000 0.000000 0.000000 0.000000 0.000000 10.000000 
Rear_Toe3_01 0.000000 0.000000 0.000000 0.000000 0.000000 0.000000 10.000000 
planeLockWeightCenter 0.000000 0.000000 0.000000 0.000000 0.000000 0.000000 10.000000 
Rear_Toe1_02 0.000000 0.000000 0.000000 0.000000 0.000000 0.000000 10.000000 
Rear_Toe1_03 0.000000 0.000000 0.000000 0.000000 0.000000 0.000000 10.000000 
Rear_Toe2_02 0.000000 0.000000 0.000000 0.000000 0.000000 0.000000 10.000000 
Rear_Toe2_03 0.000000 0.000000 0.000000 0.000000 0.000000 0.000000 10.000000 
Rear_Toe3_02 0.000000 0.000000 0.000000 0.000000 0.000000 0.000000 10.000000 
Rear_Toe3_03 0.000000 0.000000 0.000000 0.000000 0.000000 0.000000 10.000000 
Back_Bone 0.000000 0.000000 0.000000 0.000000 0.000000 0.000000 10.000000 
Head 0.000000 0.000000 0.000000 0.000000 0.000000 0.000000 10.000000 
Motor_Bone 0.000000 0.000000 0.000000 0.000000 0.000000 0.000000 10.000000 
Ping_Mechanism 0.000000 0.000000 0.000000 0.000000 0.000000 0.000000 10.000000 
BN_LookIK 0.000000 0.000000 0.000000 0.000000 0.000000 0.000000 10.000000 
bottomMouth 0.000000 0.000000 0.000000 0.000000 0.000000 0.000000 10.000000 
L_Mouth01 0.000000 0.000000 0.000000 0.000000 0.000000 0.000000 10.000000 
L_mouthFront 0.000000 0.000000 0.000000 0.000000 0.000000 0.000000 10.000000 
mouthGun 0.000000 0.000000 0.000000 0.000000 0.000000 0.000000 10.000000 
R_Mouth01 0.000000 0.000000 0.000000 0.000000 0.000000 0.000000 10.000000 
R_mouthFront 0.000000 0.000000 0.000000 0.000000 0.000000 0.000000 10.000000 
TopMouth 0.000000 0.000000 0.000000 0.000000 0.000000 0.000000 10.000000 
weapon_bone 0.000000 0.000000 0.000000 0.000000 0.000000 0.000000 10.000000 
#Beginning of Data. Separated by tabs
#Fr	Tx	Ty	Tz	Rx	Ry	Rz	SF
[Pinger_Root]
28 0.000000 0.000000 0.000000 -0.000075 -0.000000 -0.000020 0.000000
29 0.000000 0.000000 0.000000 -0.000075 -0.000000 -0.000020 0.000000
30 0.000000 0.000000 0.000000 -0.000075 -0.000000 -0.000020 0.000000
[Pelvis]
28 94.988556 963.882751 4184.179688 -133.319138 -80.660515 125.844788 4294.816895
29 75.857353 920.248962 4257.760742 -127.587761 -82.056137 120.003601 4356.734863
30 61.526661 889.421204 4323.358887 -119.521881 -83.337708 111.828064 4414.327637
[L_Hip]
28 5.766392 125.831482 872.656799 160.158691 -45.484905 122.312202 881.701050
29 5.766392 125.831482 872.656799 160.158691 -45.484905 122.312202 881.701050
30 5.766392 125.831482 872.656799 160.158691 -45.484905 122.312202 881.701050
[R_Hip]
28 5.765438 125.836372 -872.654907 63.281067 65.088959 145.559631 881.699829
29 5.765438 125.836372 -872.654907 54.480545 61.439034 138.220032 881.699829
30 5.765438 125.836372 -872.654907 47.637524 57.695030 132.714417 881.699829
[Rear_Leg01]
28 -192.298416 -925.602966 -0.001907 167.033279 -0.377865 -146.223602 945.367432
29 -192.298416 -925.602966 -0.001907 167.941833 0.525972 -149.435547 945.367432
30 -192.298416 -925.602966 -0.001907 168.798553 1.479193 -152.633682 945.367432
[Spine1]
28 290.604584 5.007505 0.000477 8.491486 3.272668 19.113371 290.647736
29 290.604584 5.007505 0.000477 8.150103 2.362909 17.052912 290.647736
30 290.604584 5.007505 0.000477 7.866168 1.353321 15.615132 290.647736
[L_Leg01]
28 761.932007 -0.002384 -0.069261 27.369249 -13.902996 1.887167 761.932068
29 761.932007 -0.002384 -0.069261 24.190681 -15.651925 2.207648 761.932068
30 761.932007 -0.002384 -0.069261 21.876329 -16.829939 1.323895 761.932068
[L_Leg02]
28 1441.140503 -0.000954 -0.000715 5.406233 0.501455 -143.581619 1441.140503
29 1441.140503 -0.000954 -0.000715 4.481164 0.052045 -141.353394 1441.140503
30 1441.140503 -0.000954 -0.000715 3.688439 -0.179330 -138.600983 1441.140503
[L_Leg03]
28 1686.963989 -0.000715 -0.000954 -0.067164 0.034242 128.016159 1686.963989
29 1686.963989 -0.000715 -0.000954 -0.049368 0.022039 123.249893 1686.963989
30 1686.963989 -0.000715 -0.000954 -0.036529 0.016858 119.512054 1686.963989
[L_Foot]
28 3041.570068 -30.715107 11.297464 -0.482564 14.133797 55.440712 3041.746094
29 3041.570068 -30.715107 11.297464 0.628514 13.258559 56.064972 3041.746094
30 3041.570068 -30.715107 11.297464 1.498536 12.809887 56.481243 3041.746094
[L_Toe1_01]
28 -188.216690 -224.732346 -21.137953 93.850121 -7.234113 -173.081757 293.899567
29 -188.216690 -224.732346 -21.137953 93.811760 -7.134198 -172.746170 293.899567
30 -188.216690 -224.732346 -21.137953 93.774002 -7.034061 -172.410706 293.899567
[L_Toe2_01]
28 200.746536 -219.926590 148.838394 -90.060295 -26.676836 -52.322773 332.896027
29 200.746536 -219.926590 148.838394 -90.016350 -26.581394 -52.496407 332.896027
30 200.746536 -219.926590 148.838394 -89.972763 -26.485840 -52.669807 332.896027
[L_Toe3_01]
28 188.832520 -219.859131 -191.078659 -99.524948 13.444057 -66.820656 347.140900
29 188.832520 -219.859131 -191.078659 -99.597603 13.510019 -67.113419 347.140900
30 188.832520 -219.859131 -191.078659 -99.670586 13.575619 -67.406349 347.140900
[planeAlignerLeft]
28 0.812531 -811.448792 -0.314951 0.000000 -90.000000 -90.001900 811.449280
29 0.812531 -811.448792 -0.314951 0.000000 -90.000000 -90.001900 811.449280
30 0.812531 -811.448792 -0.314951 0.000000 -90.000000 -90.001900 811.449280
[L_Toe1_02]
28 413.761139 0.000477 0.000000 0.001384 -26.012932 0.001384 413.761139
29 413.761139 0.000477 0.000000 0.001384 -26.012932 0.001384 413.761139
30 413.761139 0.000477 0.000000 0.001384 -26.012926 0.001384 413.761139
[L_Toe1_03]
28 464.317322 0.000358 -0.000089 0.004000 55.875000 0.004000 464.317322
29 464.317322 0.000358 -0.000089 0.003932 55.265656 0.003932 464.317322
30 464.317322 0.000358 -0.000089 0.003847 54.473022 0.003847 464.317322
[L_Toe2_02]
28 342.235809 -0.000477 0.000238 0.001188 -71.857468 0.001188 342.235809
29 342.235809 -0.000477 0.000238 0.001188 -71.857468 0.001188 342.235809
30 342.235809 -0.000477 0.000238 0.001188 -72.038986 0.001188 342.235809
[L_Toe2_03]
28 420.210846 -0.000715 0.000000 0.022389 83.990417 0.022389 420.210846
29 420.210846 -0.000715 0.000000 0.022389 83.990417 0.022389 420.210846
30 420.210846 -0.000715 0.000000 0.024634 84.538551 0.024634 420.210846
[L_Toe3_02]
28 329.270111 0.000954 0.000000 0.001178 -80.558151 0.001178 329.270111
29 329.270111 0.000954 0.000000 0.001178 -80.550323 0.001178 329.270111
30 329.270111 0.000954 0.000000 0.001178 -80.542564 0.001178 329.270111
[L_Toe3_03]
28 439.137451 -0.001907 0.000954 -179.996124 78.292885 -179.992599 439.137451
29 439.137451 -0.001907 0.000954 -179.996033 78.471695 -179.992523 439.137451
30 439.137451 -0.001907 0.000954 -179.995956 78.650459 -179.992432 439.137451
[planeLockWeightLeft]
28 -0.000954 0.000238 -0.000305 -0.011826 -0.004376 0.005620 0.001029
29 -0.000954 0.000238 -0.000305 -0.011826 -0.004376 0.005620 0.001029
30 -0.000954 0.000238 -0.000305 -0.011826 -0.004376 0.005620 0.001029
[R_Leg01]
28 761.455627 -0.001907 -0.000358 104.122276 -11.927737 53.925728 761.455688
29 761.455627 -0.001907 -0.000358 108.740524 -10.554736 49.583347 761.455688
30 761.455627 -0.001907 -0.000358 112.923950 -8.692969 45.627026 761.455688
[R_Leg02]
28 1441.140625 0.000000 -0.000238 -1.095881 -0.069979 -97.062286 1441.140625
29 1441.140625 0.000000 -0.000238 -1.044796 -0.047782 -97.662209 1441.140625
30 1441.140625 0.000000 -0.000238 -1.031243 -0.046653 -99.190903 1441.140625
[R_Leg03]
28 1686.963989 0.000954 0.001431 0.074022 -0.038515 130.532684 1686.963989
29 1686.963989 0.000954 0.001431 0.074288 -0.037999 129.736420 1686.963989
30 1686.963989 0.000954 0.001431 0.069920 -0.039909 129.424835 1686.963989
[R_Foot]
28 3041.560059 -30.531288 -11.204481 -3.655666 -24.573095 44.586838 3041.734131
29 3041.560059 -30.531288 -11.204481 -3.092300 -24.596746 45.088684 3041.734131
30 3041.560059 -30.531288 -11.204481 -2.420405 -24.631113 45.947769 3041.734131
[planeAlignerRight]
28 -0.635147 -812.270569 -0.364304 0.000000 -89.960434 -90.005180 812.270874
29 -0.635147 -812.270569 -0.364304 0.000000 -89.960434 -90.005180 812.270874
30 -0.635147 -812.270569 -0.364304 0.000000 -89.960434 -90.005180 812.270874
[R_Toe1_01]
28 -188.383347 -224.864899 21.052242 77.323662 -4.362330 -175.382538 294.101532
29 -188.383347 -224.864899 21.052242 77.323654 -4.362048 -175.382874 294.101532
30 -188.383347 -224.864899 21.052242 77.307137 -4.101588 -175.295258 294.101532
[R_Toe2_01]
28 200.637817 -220.002121 -148.787384 -84.724457 32.131763 -46.480873 332.857574
29 200.637817 -220.002121 -148.787384 -84.724457 32.131763 -46.480873 332.857574
30 200.637817 -220.002121 -148.787384 -85.359711 32.256680 -47.638374 332.857574
[R_Toe3_01]
28 188.606735 -220.092957 191.126343 -71.119629 -17.518721 -68.429688 347.192566
29 188.606735 -220.092957 191.126343 -71.118340 -17.522345 -68.432335 347.192566
30 188.606735 -220.092957 191.126343 -71.266418 -16.777842 -68.850311 347.192566
[planeLockWeightRight]
28 -0.000477 0.000000 0.000000 -0.011823 -0.004379 -0.000027 0.000477
29 -0.000477 0.000000 0.000000 -0.011823 -0.004379 -0.000027 0.000477
30 -0.000477 0.000000 0.000000 -0.011823 -0.004379 -0.000027 0.000477
[R_Toe1_02]
28 413.762085 0.000477 -0.000119 0.001385 -25.792929 0.001385 413.762085
29 413.762085 0.000477 -0.000119 0.001385 -25.788750 0.001385 413.762085
30 413.762085 0.000477 -0.000119 0.001386 -25.784569 0.001386 413.762085
[R_Toe1_03]
28 464.317810 0.000000 0.001088 0.004309 58.392216 0.004309 464.317810
29 464.317810 0.000000 0.001088 0.004309 58.392216 0.004309 464.317810
30 464.317810 0.000000 0.001088 0.004465 59.522770 0.004465 464.317810
[R_Toe2_02]
28 342.234741 -0.000954 0.000238 -0.002336 -78.155113 -0.002336 342.234741
29 342.234741 -0.000954 0.000238 -0.002336 -78.154755 -0.002336 342.234741
30 342.234741 -0.000954 0.000238 -0.002337 -77.703171 -0.002337 342.234741
[R_Toe2_03]
28 420.210846 0.000715 -0.000268 -179.993973 74.510017 -179.997513 420.210846
29 420.210846 0.000715 -0.000268 -179.993973 74.510361 -179.997513 420.210846
30 420.210846 0.000715 -0.000268 -179.993317 76.606606 -179.996841 420.210846
[R_Toe3_02]
28 329.270355 -0.000477 -0.000954 0.001177 -80.759201 0.001177 329.270355
29 329.270355 -0.000477 -0.000954 0.001177 -80.759201 0.001177 329.270355
30 329.270355 -0.000477 -0.000954 0.001178 -80.447922 0.001178 329.270355
[R_Toe3_03]
28 439.137939 0.000238 0.001431 -179.996521 77.415222 -179.992996 439.137939
29 439.137939 0.000238 0.001431 -179.996521 77.415565 -179.992996 439.137939
30 439.137939 0.000238 0.001431 -179.995956 78.631256 -179.992432 439.137939
[Rear_Leg02]
28 1162.777710 -0.029802 0.005960 0.143928 -0.254082 -114.215904 1162.777710
29 1162.777710 -0.029802 0.005960 0.627790 -1.654039 -116.801170 1162.777710
30 1162.777710 -0.029802 0.005960 0.903292 -2.691391 -119.046425 1162.777710
[Rear_Leg03]
28 607.192505 -0.013351 -0.073195 0.010508 -0.005073 67.892052 607.192505
29 607.192505 -0.013351 -0.073195 0.010524 -0.005039 67.528374 607.192505
30 607.192505 -0.013351 -0.073195 0.010554 -0.004977 66.851036 607.192505
[Rear_Leg04]
28 995.874512 -0.020504 -0.011921 -0.039954 -0.019306 65.782234 995.874573
29 995.874512 -0.020504 -0.011921 -0.039797 -0.019626 64.859932 995.874573
30 995.874512 -0.020504 -0.011921 -0.043792 -0.017443 63.627762 995.874573
[Rear_Foot]
28 3096.176270 -0.067472 -0.041425 -173.315079 87.453171 15.805638 3096.176270
29 3096.176270 -0.067472 -0.041425 -152.058289 86.705688 37.193775 3096.176270
30 3096.176270 -0.067472 -0.041425 -142.418137 86.000412 47.214996 3096.176270
[planeAlignerCenter]
28 0.350077 0.966311 -838.790894 0.000009 0.000003 -179.999985 838.791565
29 0.350077 0.966311 -838.790894 0.000009 0.000003 -179.999985 838.791565
30 0.350077 0.966311 -838.790894 0.000009 0.000003 -179.999985 838.791565
[Rear_Toe1_01]
28 0.653352 83.966492 -371.173737 0.288091 41.914127 90.413170 380.553192
29 0.653352 83.966492 -371.173737 0.288091 41.914127 90.413170 380.553192
30 0.653352 83.966492 -371.173737 0.288091 41.914127 90.413170 380.553192
[Rear_Toe2_01]
28 178.200760 -294.826019 -362.060547 -7.196267 34.406261 -66.271294 499.765686
29 178.200760 -294.826019 -362.060547 -7.196267 34.406261 -66.271294 499.765686
30 178.200760 -294.826019 -362.060547 -7.196267 34.406261 -66.271294 499.765686
[Rear_Toe3_01]
28 -153.359680 -308.780914 -362.060852 3.289418 33.518005 -112.540970 499.952881
29 -153.359680 -308.780914 -362.060852 3.289418 33.518005 -112.540970 499.952881
30 -153.359680 -308.780914 -362.060852 3.289418 33.518005 -112.540970 499.952881
[planeLockWeightCenter]
28 -0.000062 0.000238 0.000000 -0.011814 -0.004373 -0.000015 0.000246
29 -0.000062 0.000238 0.000000 -0.011814 -0.004373 -0.000015 0.000246
30 -0.000062 0.000238 0.000000 -0.011814 -0.004373 -0.000015 0.000246
[Rear_Toe1_02]
28 379.707825 0.194073 0.000477 -0.000242 -31.679951 0.006934 379.707855
29 379.707825 0.194073 0.000477 -0.000242 -31.679626 0.006934 379.707855
30 379.707825 0.194073 0.000477 -0.000242 -31.679310 0.006934 379.707855
[Rear_Toe1_03]
28 500.129700 0.165701 0.000119 -0.000103 51.905918 0.007295 500.129761
29 500.129700 0.165701 0.000119 -0.000103 51.905567 0.007295 500.129761
30 500.129700 0.165701 0.000119 -0.000103 51.905231 0.007295 500.129761
[Rear_Toe2_02]
28 340.494507 0.000238 -0.000954 0.001192 -69.854523 0.001192 340.494507
29 340.494507 0.000238 -0.000954 0.001192 -69.854523 0.001192 340.494507
30 340.494507 0.000238 -0.000954 0.001192 -69.854523 0.001192 340.494507
[Rear_Toe2_03]
28 433.103577 0.000000 0.000238 0.006696 69.810341 0.006696 433.103546
29 433.103577 0.000000 0.000238 0.006696 69.810326 0.006696 433.103546
30 433.103577 0.000000 0.000238 0.006696 69.810326 0.006696 433.103546
[Rear_Toe3_02]
28 340.494141 -0.000358 -0.000477 0.008288 -67.274704 -0.009460 340.494171
29 340.494141 -0.000358 -0.000477 0.008288 -67.274704 -0.009460 340.494171
30 340.494141 -0.000358 -0.000477 0.008288 -67.274704 -0.009460 340.494171
[Rear_Toe3_03]
28 433.103577 0.001431 -0.000238 -0.000972 65.958961 -0.004547 433.103546
29 433.103577 0.001431 -0.000238 -0.000972 65.958984 -0.004547 433.103546
30 433.103577 0.001431 -0.000238 -0.000972 65.958984 -0.004547 433.103546
[Back_Bone]
28 1312.175781 -701.934692 0.000954 -2.230616 6.901143 -93.104393 1488.125488
29 1312.175781 -701.934692 0.000954 -1.693787 6.024856 -91.200890 1488.125488
30 1312.175781 -701.934692 0.000954 -1.187282 5.131378 -89.308533 1488.125488
[Head]
28 1406.159424 809.709290 0.001431 -0.590770 0.449922 23.841572 1622.625488
29 1406.159424 809.709290 0.001431 -0.612597 0.739507 20.267529 1622.625488
30 1406.159424 809.709290 0.001431 -0.652437 1.027169 16.693077 1622.625488
[Motor_Bone]
28 1158.364380 -417.834747 0.000477 -0.096022 12.231914 -114.666176 1231.419434
29 1158.364380 -417.834747 0.000477 -0.096332 10.288129 -110.864647 1231.419434
30 1158.364380 -417.834747 0.000477 -0.095355 7.635166 -106.758240 1231.419434
[Ping_Mechanism]
28 1254.457764 -443.069763 -22.511826 0.000103 -0.000053 82.120995 1330.594482
29 1250.339600 -442.563477 -16.434185 0.000103 -0.000053 82.120995 1326.454590
30 1245.996704 -442.364471 -9.661654 0.000103 -0.000053 82.120995 1322.228271
[BN_LookIK]
28 193.241119 1380.371704 -0.002861 0.000000 89.965736 -31.038179 1393.832153
29 193.241119 1380.371704 -0.002861 0.000000 89.965736 -31.038179 1393.832153
30 193.241119 1380.371704 -0.002861 0.000000 89.965736 -31.038179 1393.832153
[bottomMouth]
28 -435.092926 615.759399 -0.000954 -0.000022 0.000016 73.527184 753.966492
29 -435.092926 615.759399 -0.000954 -0.000022 0.000016 73.527184 753.966492
30 -435.092926 615.759399 -0.000954 -0.000022 0.000016 73.527184 753.966492
[L_Mouth01]
28 554.440979 7.658243 838.222046 150.204178 23.759130 109.605339 1005.027161
29 554.440979 7.658243 838.222046 150.204178 23.759130 109.605339 1005.027161
30 554.440979 7.658243 838.222046 150.204178 23.759130 109.605339 1005.027161
[L_mouthFront]
28 551.629089 934.514771 339.150421 0.000081 2.804060 79.119301 1136.941284
29 551.629089 934.514771 339.150421 0.000081 2.804060 79.119301 1136.941284
30 551.629089 934.514771 339.150421 0.000081 2.804060 79.119301 1136.941284
[mouthGun]
28 55.332661 1627.420898 0.000000 0.000023 0.000009 -11.038128 1628.361328
29 55.332661 1627.420898 0.000000 0.000023 0.000009 -11.038128 1628.361328
30 55.332661 1627.420898 0.000000 0.000023 0.000009 -11.038128 1628.361328
[R_Mouth01]
28 554.442383 7.659197 -838.223938 29.795891 -23.759109 109.605331 1005.029541
29 554.442383 7.659197 -838.223938 29.795891 -23.759109 109.605331 1005.029541
30 554.442383 7.659197 -838.223938 29.795891 -23.759109 109.605331 1005.029541
[R_mouthFront]
28 551.629089 934.514282 -339.151367 0.000029 -2.803930 79.119133 1136.941162
29 551.629089 934.514282 -339.151367 0.000029 -2.803930 79.119133 1136.941162
30 551.629089 934.514282 -339.151367 0.000029 -2.803930 79.119133 1136.941162
[TopMouth]
28 461.269867 -56.106091 -0.008583 -0.000059 -0.000268 92.025169 464.669525
29 461.269867 -56.106091 -0.008583 -0.000059 -0.000268 92.025169 464.669525
30 461.269867 -56.106091 -0.008583 -0.000059 -0.000268 92.025169 464.669525
[weapon_bone]
28 -987.239868 1448.372803 0.001431 0.000000 89.965736 -31.038221 1752.833740
29 -987.239868 1448.372803 0.001431 0.000000 89.965736 -31.038221 1752.833740
30 -987.239868 1448.372803 0.001431 0.000000 89.965736 -31.038221 1752.833740
